# xmcd
#
# Track frame offsets:
#	150
#	17887
#	30594
#	44980
#	61520
#	78015
#	91647
#	104255
#	116577
#
# Disc length: 1720 seconds
#
# Revision: 1
# Processed by: cddbd v1.4PL0 Copyright (c) Steve Scherf et al.
# Submitted via: audiograbber 1.81.02
#
DISCID=6206b609
DTITLE=Freetime Schwoofband - Un sunscht ?
DYEAR=1995
DGENRE=Blues
TTITLE0=Tschonnie bi gutt
TTITLE1=Un sunscht ?
TTITLE2=Solang ih bloﬂ dei Licht seh' kou
TTITLE3=Motorradfoahrn
TTITLE4=R‰der miaﬂe roll‚
TTITLE5=Summerzeit
TTITLE6=Kocherdool
TTITLE7=Ih schdeh uff dih!
TTITLE8=Swing Low, Sweet Chariot
EXTD=Interpret neu, nennt sich jetzt ANNAWEECH
EXTT0=
EXTT1=
EXTT2=
EXTT3=
EXTT4=
EXTT5=
EXTT6=
EXTT7=
EXTT8=
PLAYORDER=
